<svg xmlns="http://www.w3.org/2000/svg" version="1.1" xmlns:xlink="http://www.w3.org/1999/xlink" width="512" height="512" x="0" y="0" viewBox="0 0 64 64" style="enable-background:new 0 0 512 512" xml:space="preserve"><g><path d="M57.33 37.07a1 1 0 0 0 1-1v-9.13a4.479 4.479 0 0 0-.99-2.883l-5.664-5.017v-4.743a2.905 2.905 0 0 0-2.902-2.901h-5.726c-1.227-1.076-5.315-4.728-6.518-5.722a6.936 6.936 0 0 0-9.061 0l-6.515 5.722h-5.728a2.905 2.905 0 0 0-2.902 2.901v4.743l-5.663 5.017a4.483 4.483 0 0 0-.991 2.883V55.2a4.835 4.835 0 0 0 4.8 4.8h43.06a4.836 4.836 0 0 0 4.8-4.8V40.07a1 1 0 0 0-2 0V55.2a2.821 2.821 0 0 1-.044.476l-17.053-14.61 17.052-14.61a2.865 2.865 0 0 1 .045.484v9.13a1 1 0 0 0 1 1zm-2.176-12.277-3.478 2.98V21.71zM26.956 8.752l1.814-1.559a4.944 4.944 0 0 1 6.459 0l4.786 4.203H23.969zm-14.632 19.02-3.478-2.98 3.478-3.08zM10.47 58a2.794 2.794 0 0 1-1.7-.596l8.68-7.435a1 1 0 0 0-1.3-1.518l-8.436 7.225a2.81 2.81 0 0 1-.044-.476V26.94a2.865 2.865 0 0 1 .045-.483l17.053 14.61-5.579 4.784a1 1 0 0 0 1.302 1.518l8.281-7.101a4.978 4.978 0 0 1 6.457.001l20 17.134a2.79 2.79 0 0 1-1.7.597zm26.062-19.248a6.99 6.99 0 0 0-9.063-.001l-1.165.999-11.98-10.264V14.297a.903.903 0 0 1 .902-.901h33.548a.903.903 0 0 1 .902.901v15.19l-11.98 10.262z" fill="#000000" opacity="1" data-original="#000000" class=""/><path d="M32.618 16.03A9.314 9.314 0 1 0 32 34.637a1 1 0 0 0 0-2 7.322 7.322 0 0 1-7.313-7.313c.425-9.807 14.341-9.673 14.626.286l.005 2.643a1.38 1.38 0 0 1-2.76.014l.01-7.41a1.006 1.006 0 1 0-2 .17c-3.046-2.427-7.221.33-7.126 4.297-.11 4.092 4.347 6.844 7.334 4.1a3.396 3.396 0 0 0 5.565 1.22c1.327-1.14.924-3.505.972-5.036a9.482 9.482 0 0 0-8.695-9.578zM32 28.53c-3.369-.096-3.368-6.317 0-6.413 3.37.097 3.368 6.318 0 6.414z" fill="#000000" opacity="1" data-original="#000000" class=""/></g></svg>